<svg width="16" height="16" viewBox="0 0 16 16" fill="none" xmlns="http://www.w3.org/2000/svg">
  <path d="M12.053 8.013c-.014-1.363.612-2.396 1.88-3.147-.688-.97-1.726-1.508-3.106-1.615-1.297-.103-2.71.743-3.217.743-.542 0-1.822-.706-2.813-.706C2.851 3.288 1 4.53 1 7.076c0 .75.14 1.524.42 2.32.374 1.088 1.722 3.757 3.127 3.727.74-.015 1.257-.515 2.213-.515.92 0 1.407.515 2.213.515 1.418-.02 2.647-2.399 3.001-3.491-1.897-.874-1.921-2.576-1.921-3.619z" fill="#000"/>
  <path d="M9.905 3.67c.71-.827 1.198-1.96.994-3.17-.994.06-2.152.636-2.838 1.435-.614.684-1.175 1.803-.97 2.848 1.084.082 2.193-.46 2.814-1.113z" fill="#000"/>
</svg> 